<svg width="417" height="253" viewBox="0 0 417 253" fill="none" xmlns="http://www.w3.org/2000/svg">
<path opacity="0.27" d="M45.2622 237.1C47.5095 238.678 51.4585 239.815 55.3426 240.893H379.186C379.68 240.607 380.16 240.302 380.609 239.951C383.447 237.73 384.947 234.366 386.22 231.099C392.365 215.342 395.697 198.351 393.54 181.684C391.39 165.018 383.389 148.702 369.742 137.901C362.78 132.393 354.524 128.392 347.99 122.436C327.94 104.133 327.654 70.9435 304.642 56.0438C294.036 49.1785 280.461 47.7107 267.621 48.5096C255.624 49.2565 243.582 51.8675 233.203 57.5767C222.363 63.5391 213.861 72.5348 204.859 80.764C186.803 97.268 164.875 111.603 139.882 114.35C123.982 116.097 107.894 113.038 91.9227 113.954C74.4835 114.954 57.395 120.819 43.3657 130.614C34.3765 136.888 26.472 144.987 22.575 154.86C16.8009 169.467 20.4446 185.854 26.0239 200.533C29.8754 210.659 35.8899 230.521 45.2622 237.1Z" fill="#E2CFF9"/>
<path opacity="0.27" d="M371.197 192.694C362.682 208.665 354.109 224.604 345.587 240.575C344.438 242.725 343.217 244.959 341.203 246.33C338.599 248.096 335.221 248.07 332.077 247.986C315.041 247.499 298.043 247.194 281.007 247.038C241.777 246.68 202.553 246.323 163.323 245.966C145.721 245.804 128.12 245.648 110.518 245.485C99.0023 245.381 87.5515 245.823 76.0618 245.856C70.2227 245.875 64.0199 244.758 59.7007 240.822C56.1089 237.548 54.3098 232.801 52.7445 228.196C44.3399 203.423 39.2738 177.528 37.7149 151.417C36.377 129.022 41.3587 106.4 59.298 91.3317C65.9814 85.7134 73.9119 81.641 80.1796 75.5617C99.431 56.9014 99.7038 23.0751 121.793 7.88965C131.978 0.881478 145.013 -0.612385 157.334 0.199497C168.85 0.959419 180.405 3.62239 190.368 9.44197C200.773 15.5213 208.931 24.6859 217.583 33.0775C234.918 49.8997 255.968 64.5136 279.955 67.3129C295.212 69.0926 310.657 65.975 325.992 66.9102C342.729 67.93 359.136 73.9119 372.607 83.8948C381.232 90.286 388.818 98.5477 392.566 108.609C400.75 130.601 391.826 153.671 381.498 173.254C378.076 179.742 374.64 186.218 371.184 192.694H371.197Z" fill="#E4D2F9"/>
<path d="M133.939 203.786L130.814 211.594L130.042 211.717L122.527 212.958C122.527 212.958 79.5555 220.907 83.7967 206.631C85.7777 199.993 91.4154 197.408 96.8778 196.538C85.388 195.629 69.053 192.498 62.2396 182.288C51.211 165.764 80.8999 166.102 80.8999 166.102C80.8999 166.102 29.524 141.401 56.6929 119.312C56.9786 119.084 57.2709 118.864 57.5502 118.656C84.4008 98.7744 98.7224 157.652 98.7224 157.652C98.7224 157.652 103.165 123.995 116.941 138.31C125.443 147.163 124.995 163.79 123.41 175.202C125.437 170.045 129.178 165.102 136.088 164.595C150.943 163.517 133.939 203.773 133.939 203.773V203.786Z" fill="#DFCEF2"/>
<g opacity="0.43">
<path d="M130.814 211.6L64.3828 127.638" stroke="white" stroke-width="0.649506" stroke-linecap="round" stroke-linejoin="round"/>
<path d="M114.882 153.326L108.394 183.255L75.0742 182.112" stroke="white" stroke-width="0.649506" stroke-linecap="round" stroke-linejoin="round"/>
<path d="M132.731 174.798L122.664 201.292L91.0137 205.741" stroke="white" stroke-width="0.649506" stroke-linecap="round" stroke-linejoin="round"/>
</g>
<path d="M181.666 149.384V177.677L179.731 177.092L159.005 170.779V139.642L161.324 140.642L173.515 145.877L181.666 149.384Z" fill="#FCDFB1"/>
<g style="mix-blend-mode:multiply" opacity="0.75">
<path d="M179.732 177.092L159.006 170.779V139.642L161.325 140.642L170.34 146.78C170.34 146.78 165.507 164.433 177.484 174.235C178.861 175.358 179.569 176.306 179.732 177.092Z" fill="#FFF6D2"/>
</g>
<path d="M191.533 128.717C196.103 128.717 199.807 124.495 199.807 119.286C199.807 114.078 196.103 109.855 191.533 109.855C186.963 109.855 183.258 114.078 183.258 119.286C183.258 124.495 186.963 128.717 191.533 128.717Z" fill="#B390E0"/>
<path d="M175.825 152.164C175.695 152.177 175.558 152.19 175.422 152.197C174.487 152.249 173.506 152.255 172.48 152.223C148.208 151.281 150.585 113.447 152.533 98.2033C152.533 98.1903 152.533 98.1773 152.54 98.1708C153.027 94.3322 153.488 91.9355 153.488 91.9355L165.082 88.5581L172.48 86.3953L184.963 91.9355L194.965 109.732C194.965 109.732 195.42 112.22 195.693 115.98C195.719 116.363 195.745 116.753 195.771 117.162C195.771 117.24 195.777 117.325 195.777 117.403V117.435C196.42 129.25 194.914 150.683 175.825 152.164Z" fill="#FCDFB1"/>
<path d="M174.39 124.345C174.39 125.878 173.533 127.125 172.481 127.125C171.429 127.125 170.571 125.878 170.571 124.345C170.571 122.812 171.429 121.565 172.481 121.565C173.533 121.565 174.39 122.812 174.39 124.345Z" fill="#604820"/>
<path d="M189.673 124.345C189.673 125.878 188.815 127.125 187.763 127.125C186.711 127.125 185.854 125.878 185.854 124.345C185.854 122.812 186.711 121.565 187.763 121.565C188.815 121.565 189.673 122.812 189.673 124.345Z" fill="#604820"/>
<path d="M184.548 124.346C184.548 124.346 182.196 129.152 183.658 131.341C185.119 133.53 185.847 135.277 182.346 136.517" stroke="#704D26" stroke-width="0.649506" stroke-linecap="round" stroke-linejoin="round"/>
<path d="M167.765 135.712C167.765 135.712 172.214 142.752 180.527 140.213" stroke="#704D26" stroke-width="0.649506" stroke-linecap="round" stroke-linejoin="round"/>
<path d="M168.972 118.214C168.972 118.214 169.92 115.818 172.719 116.149C175.187 116.441 175.733 118.214 175.733 118.214" stroke="#704D26" stroke-width="0.649506" stroke-linecap="round" stroke-linejoin="round"/>
<path d="M185.71 119.032C185.71 119.032 186.45 117.162 188.639 117.415C190.568 117.642 190.997 119.032 190.997 119.032" stroke="#704D26" stroke-width="0.649506" stroke-linecap="round" stroke-linejoin="round"/>
<g style="mix-blend-mode:multiply" opacity="0.75">
<path d="M196.389 117.435H196.272C196.175 117.435 196.006 117.422 195.778 117.403C192.109 117.045 172.896 114.058 167.583 107.257C167.583 107.257 150.677 145.461 175.826 152.164C175.696 152.177 175.559 152.19 175.423 152.197C174.488 152.249 173.507 152.255 172.481 152.223C148.209 151.281 150.586 113.447 152.534 98.2033C152.534 98.1903 152.534 98.1773 152.541 98.1708C153.314 94.3322 153.983 91.9355 153.983 91.9355L165.576 88.5581L174.137 89.9286L186.341 96.9692L190.186 104.633L195.694 115.98L196.265 117.162L196.389 117.435Z" fill="#FFF6D2"/>
</g>
<path d="M166.018 100.58C166.018 100.58 177.281 117.006 195.896 117.435C195.896 117.435 202.43 74.2039 161.985 82.7774C147.377 87.4538 144.916 96.6183 149.605 122.345C149.605 122.345 162.53 111.94 166.025 100.58H166.018Z" fill="#3A2B1A"/>
<path d="M155.432 85.687C148.086 95.9102 149.067 112.96 149.08 113.135L148.398 113.181C148.385 112.999 147.482 97.2612 153.906 86.7587C154.386 86.382 154.893 86.0312 155.432 85.687Z" fill="black"/>
<path d="M153.764 128.236C153.764 128.236 154.972 136.186 161.798 139.648" stroke="#7229B5" stroke-width="0.649506" stroke-linecap="round" stroke-linejoin="round"/>
<path d="M167.084 140.213C167.084 141.427 165.759 142.408 164.116 142.408C162.472 142.408 161.147 141.427 161.147 140.213C161.147 138.998 162.472 138.018 164.116 138.018C165.759 138.018 167.084 138.998 167.084 140.213Z" fill="#B390E0"/>
<path d="M152.245 130.093C156.815 130.093 160.52 125.871 160.52 120.663C160.52 115.454 156.815 111.232 152.245 111.232C147.675 111.232 143.971 115.454 143.971 120.663C143.971 125.871 147.675 130.093 152.245 130.093Z" fill="#B390E0"/>
<path d="M149.608 128.236C153.324 128.236 156.337 124.845 156.337 120.662C156.337 116.48 153.324 113.089 149.608 113.089C145.892 113.089 142.879 116.48 142.879 120.662C142.879 124.845 145.892 128.236 149.608 128.236Z" fill="#AE7DE2"/>
<path d="M189.596 88.876C188.849 88.0121 188.018 87.1873 187.095 86.4468C183.354 81.6145 178.054 78.0747 170.565 78.0682C165.096 78.0747 160.595 79.9258 157.133 83.602C156.516 84.258 155.951 84.953 155.425 85.6934C148.079 95.9166 149.06 112.966 149.073 113.142L148.391 113.187C148.378 113.005 147.475 97.2676 153.899 86.7651C154.691 85.4596 155.601 84.2385 156.633 83.1408C160.225 79.3282 164.895 77.3862 170.533 77.3862H170.559C179.723 77.3992 185.699 82.5173 189.583 88.876H189.596Z" fill="#B390E0"/>
<path d="M224.953 234.911L218.055 234.794L132.203 233.34L133.275 163.726L146.473 160.855H146.479L159.002 157.919C159.002 157.919 175.96 183.087 184.449 160.166L216.782 170.747L224.953 234.905V234.911Z" fill="white"/>
<g style="mix-blend-mode:multiply" opacity="0.75">
<path d="M140.186 184.769C140.186 184.769 157.353 228.253 206.936 227.24L129.534 223.863L130.476 194.427L140.186 184.769Z" fill="#EFEFEF"/>
</g>
<path d="M174.556 169.804L174.134 226.909" stroke="#BABABA" stroke-width="0.649506" stroke-linecap="round" stroke-linejoin="round"/>
<path d="M108.762 203.689L108.391 227.279C108.333 231.138 111.399 234.32 115.263 234.398L202.31 236.158V228.429L134.515 220.258L135.437 202.722L108.768 203.689H108.762Z" fill="#FCDFB1"/>
<path d="M158.995 157.925L174.551 169.805C174.551 169.805 172.583 170.838 167.393 176.475L146.473 160.848L158.995 157.919V157.925Z" fill="#B390E0"/>
<path d="M174.557 169.805L181.13 175.059L189.541 161.842L181.662 159.263L174.557 169.805Z" fill="#B390E0"/>
<path d="M142.848 192.862H161.788V203.56C161.788 208.113 158.092 211.808 153.539 211.808H151.091C146.537 211.808 142.842 208.113 142.842 203.56V192.862H142.848Z" stroke="#BABABA" stroke-width="0.649506" stroke-linecap="round" stroke-linejoin="round"/>
<path d="M139.25 205.735H106.424C106.424 172.779 122.895 165.713 130.326 164.199H130.332C132.482 163.771 134.34 163.485 134.34 163.485C142.582 169.045 139.243 205.729 139.243 205.729L139.25 205.735Z" fill="white"/>
<path d="M139.25 205.742C139.25 205.742 141.354 188.322 139.25 180.034" stroke="#BABABA" stroke-width="0.649506" stroke-linecap="round" stroke-linejoin="round"/>
<path d="M135.277 205.742L134.511 220.265L166.376 224.318" stroke="#7229B5" stroke-width="0.649506" stroke-linecap="round" stroke-linejoin="round"/>
<path d="M397.851 151.403C397.851 151.403 383.556 133.99 390.713 133.061C397.124 132.23 397.78 147.604 397.845 150.819C397.851 151.196 397.851 151.403 397.851 151.403Z" fill="#DFCEF2"/>
<path d="M398.053 151.169C398.053 151.169 415.466 136.874 416.395 144.031C417.324 151.189 398.053 151.169 398.053 151.169Z" fill="#DFCEF2"/>
<path d="M391.48 164.972C391.48 164.972 377.185 147.558 384.342 146.629C391.5 145.701 391.48 164.972 391.48 164.972Z" fill="#DFCEF2"/>
<path d="M391.452 165.036C391.452 165.036 408.865 150.741 409.794 157.898C410.723 165.056 391.452 165.036 391.452 165.036Z" fill="#DFCEF2"/>
<path d="M384.7 176.137C384.7 176.137 372.158 160.86 378.438 160.042C384.719 159.23 384.7 176.137 384.7 176.137Z" fill="#DFCEF2"/>
<path d="M384.529 176.098C384.529 176.098 399.806 163.556 400.624 169.836C401.436 176.117 384.529 176.098 384.529 176.098Z" fill="#DFCEF2"/>
<path d="M376.963 186.314C376.963 186.314 367.149 170.603 373.085 170.603C379.022 170.603 376.963 186.314 376.963 186.314Z" fill="#DFCEF2"/>
<path d="M376.678 186.094C376.678 186.094 392.389 176.28 392.389 182.216C392.389 188.153 376.678 186.094 376.678 186.094Z" fill="#DFCEF2"/>
<path d="M368.233 195.427C368.233 195.427 362.816 177.715 368.545 179.248C374.273 180.781 368.233 195.427 368.233 195.427Z" fill="#DFCEF2"/>
<path d="M368.214 195.193C368.214 195.193 385.926 189.777 384.393 195.505C382.86 201.234 368.214 195.193 368.214 195.193Z" fill="#DFCEF2"/>
<path d="M359.551 202.896C359.551 202.896 354.855 187.535 359.823 188.867C364.792 190.198 359.551 202.896 359.551 202.896Z" fill="#DFCEF2"/>
<path d="M359.395 202.513C359.395 202.513 374.755 197.817 373.424 202.786C372.092 207.754 359.395 202.513 359.395 202.513Z" fill="#DFCEF2"/>
<path d="M352.425 208.118C352.425 208.118 348.411 194.998 352.658 196.141C356.9 197.278 352.425 208.118 352.425 208.118Z" fill="#DFCEF2"/>
<path d="M352.224 207.735C352.224 207.735 365.344 203.722 364.201 207.969C363.064 212.211 352.224 207.735 352.224 207.735Z" fill="#DFCEF2"/>
<path d="M397.416 152.365C397.416 152.365 402.378 129.574 406.717 131.12C411.056 132.672 397.416 152.365 397.416 152.365Z" fill="#DFCEF2"/>
<path d="M399.37 147.682C399.37 147.682 383.217 198.753 332.465 217.712" stroke="#DFC0FF" stroke-width="0.649506" stroke-miterlimit="10"/>
<path d="M17.0674 147.286C17.0674 147.286 34.2988 132.77 27.4335 130.555C21.2827 128.567 17.8338 143.564 17.1843 146.714C17.1064 147.078 17.0674 147.286 17.0674 147.286Z" fill="#DFCEF2"/>
<path d="M16.9114 147.02C16.9114 147.02 2.3949 129.782 0.180085 136.654C-2.03473 143.526 16.9114 147.02 16.9114 147.02Z" fill="#DFCEF2"/>
<path d="M20.8545 161.79C20.8545 161.79 38.0859 147.273 31.2206 145.058C24.3488 142.843 20.8545 161.79 20.8545 161.79Z" fill="#DFCEF2"/>
<path d="M20.8664 161.854C20.8664 161.854 6.34998 144.623 4.13516 151.488C1.92035 158.36 20.8664 161.854 20.8664 161.854Z" fill="#DFCEF2"/>
<path d="M25.4834 174C25.4834 174 40.6039 161.264 34.5765 159.322C28.5491 157.38 25.4834 174 25.4834 174Z" fill="#DFCEF2"/>
<path d="M25.6599 173.994C25.6599 173.994 12.9231 158.873 10.9811 164.901C9.03905 170.928 25.6599 173.994 25.6599 173.994Z" fill="#DFCEF2"/>
<path d="M31.2344 185.419C31.2344 185.419 43.7504 171.76 37.9113 170.681C32.0787 169.603 31.2344 185.419 31.2344 185.419Z" fill="#DFCEF2"/>
<path d="M31.5576 185.25C31.5576 185.25 17.8985 172.734 16.8203 178.573C15.7421 184.405 31.5576 185.25 31.5576 185.25Z" fill="#DFCEF2"/>
<path d="M38.1561 195.967C38.1561 195.967 46.7166 179.534 40.7996 180.002C34.8826 180.47 38.1561 195.967 38.1561 195.967Z" fill="#DFCEF2"/>
<path d="M38.2139 195.746C38.2139 195.746 21.7814 187.186 22.2491 193.103C22.7167 199.02 38.2139 195.746 38.2139 195.746Z" fill="#DFCEF2"/>
<path d="M45.3319 204.904C45.3319 204.904 52.7492 190.66 47.6246 191.063C42.4935 191.466 45.3319 204.904 45.3319 204.904Z" fill="#DFCEF2"/>
<path d="M45.5535 204.553C45.5535 204.553 31.3098 197.136 31.7125 202.26C32.1152 207.391 45.5535 204.553 45.5535 204.553Z" fill="#DFCEF2"/>
<path d="M51.3825 211.334C51.3825 211.334 57.7217 199.169 53.3375 199.513C48.9599 199.857 51.3825 211.334 51.3825 211.334Z" fill="#DFCEF2"/>
<path d="M51.6553 210.99C51.6553 210.99 39.4901 204.651 39.8343 209.035C40.1786 213.413 51.6553 210.99 51.6553 210.99Z" fill="#DFCEF2"/>
<path d="M17.3213 148.306C17.3213 148.306 16.6003 124.989 12.0538 125.723C7.50722 126.457 17.3213 148.306 17.3213 148.306Z" fill="#DFCEF2"/>
<path d="M16.249 143.35C16.249 143.35 22.8155 196.512 69.2552 224.409" stroke="#E5CCFF" stroke-width="0.649506" stroke-miterlimit="10"/>
<path d="M47.822 227.566C45.8605 227.566 44.2627 225.728 44.2627 223.461V211.296C44.2627 209.036 45.8605 207.191 47.822 207.191H56.2201C58.1816 207.191 59.7794 209.029 59.7794 211.296V223.461C59.7794 225.721 58.1816 227.566 56.2201 227.566H47.822ZM50.0303 211.88C49.147 211.88 48.4325 212.738 48.4325 213.79V220.973C48.4325 222.026 49.1535 222.876 50.0303 222.876H55.025C55.9083 222.876 56.6228 222.019 56.6228 220.973V213.79C56.6228 212.738 55.9018 211.88 55.025 211.88H50.0303Z" fill="#78D6EF"/>
<path d="M56.2206 207.515C58.0068 207.515 59.4552 209.211 59.4552 211.296V223.461C59.4552 225.546 58.0068 227.241 56.2206 227.241H47.8225C46.0364 227.241 44.588 225.546 44.588 223.461V211.296C44.588 209.211 46.0364 207.515 47.8225 207.515H56.2206ZM50.0308 223.201H55.0255C56.0907 223.201 56.9481 222.201 56.9481 220.973V213.79C56.9481 212.556 56.0842 211.562 55.0255 211.562H50.0308C48.9657 211.562 48.1083 212.562 48.1083 213.79V220.973C48.1083 222.207 48.9721 223.201 50.0308 223.201ZM56.2206 206.866H47.8225C45.6791 206.866 43.9385 208.853 43.9385 211.296V223.461C43.9385 225.903 45.6791 227.89 47.8225 227.89H56.2206C58.364 227.89 60.1047 225.903 60.1047 223.461V211.296C60.1047 208.853 58.364 206.866 56.2206 206.866ZM50.0308 222.552C49.3294 222.552 48.7578 221.844 48.7578 220.973V213.79C48.7578 212.919 49.3294 212.211 50.0308 212.211H55.0255C55.727 212.211 56.2986 212.919 56.2986 213.79V220.973C56.2986 221.844 55.727 222.552 55.0255 222.552H50.0308Z" fill="#2652AA"/>
<path d="M60.361 235.237C56.503 235.237 53.3594 232.1 53.3594 228.235V202.333C53.3594 202.151 53.5023 202.008 53.6841 202.008H77.6574C77.8393 202.008 77.9821 202.151 77.9821 202.333V228.235C77.9821 232.093 74.845 235.237 70.9805 235.237H60.3546H60.361Z" fill="#B2E0F9"/>
<path d="M77.6586 202.333V228.235C77.6586 231.924 74.6708 234.912 70.9816 234.912H60.3557C56.6665 234.912 53.6788 231.924 53.6788 228.235V202.333H77.6521M77.6521 201.683H53.6788C53.3216 201.683 53.0293 201.975 53.0293 202.333V228.235C53.0293 232.275 56.3158 235.561 60.3557 235.561H70.9816C75.0216 235.561 78.3081 232.275 78.3081 228.235V202.333C78.3081 201.975 78.0158 201.683 77.6586 201.683H77.6521Z" fill="#0058B7"/>
<g style="mix-blend-mode:multiply" opacity="0.75">
<path d="M69.2357 234.911H60.3634C56.6742 234.911 53.6865 231.924 53.6865 228.235V202.332H64.4618C63.533 209.919 62.0132 228.988 69.2292 234.905L69.2357 234.911Z" fill="#D4EEFF"/>
</g>
<path d="M322.392 205.119C322.392 205.119 306.284 182.828 314.909 181.691C323.535 180.554 326.25 187.881 326.25 187.881C326.25 187.881 319.43 169.422 326.113 169.13C329.854 168.967 334.667 180.282 334.667 180.282C334.667 180.282 328.075 147.683 341.929 147.683C345.02 147.683 353.146 155.821 349.405 180.385C349.405 180.385 353.795 167.045 362.421 170.786C371.046 174.527 355.263 189.823 355.263 189.823C355.263 189.823 366.324 178.268 370.884 184.939C375.437 191.609 356.692 205.112 356.692 205.112H322.398L322.392 205.119Z" fill="#BDEF97"/>
<path d="M362.414 170.786C371.04 174.527 355.257 189.823 355.257 189.823C355.257 189.823 366.318 178.268 370.877 184.938" stroke="#41A000" stroke-width="0.649506" stroke-linecap="round" stroke-linejoin="round"/>
<path d="M314.903 181.691C323.529 180.554 326.244 187.881 326.244 187.881C326.244 187.881 319.424 169.422 326.107 169.13C329.848 168.967 334.661 180.282 334.661 180.282C334.661 180.282 328.069 147.683 341.923 147.683" stroke="#41A000" stroke-width="0.649506" stroke-linecap="round" stroke-linejoin="round"/>
<path d="M339.978 238.295C334.503 238.295 329.826 236.677 326.078 233.482C319.33 227.734 315.907 217.283 315.907 202.422C315.907 202.241 316.05 202.098 316.232 202.098H364.886C365.068 202.098 365.211 202.241 365.211 202.422C365.211 232.15 351.422 237.606 343.206 238.217C342.349 238.282 341.634 238.288 341.108 238.288H339.984L339.978 238.295Z" fill="#B2E0F9"/>
<path d="M364.887 202.429C364.887 233.424 349.864 237.405 343.181 237.899C342.343 237.964 341.642 237.97 341.115 237.97C340.901 237.97 340.719 237.97 340.563 237.97C340.407 237.97 340.206 237.97 339.985 237.97C335.146 237.97 316.239 237.197 316.239 202.423H364.894M364.894 201.773H316.239C315.882 201.773 315.59 202.065 315.59 202.423C315.59 233.917 330.873 238.62 339.985 238.62H340.33H340.57H340.797H341.115C341.648 238.62 342.362 238.613 343.233 238.542C351.566 237.925 365.543 232.41 365.543 202.423C365.543 202.065 365.251 201.773 364.894 201.773Z" fill="#0058B7"/>
<g style="mix-blend-mode:multiply" opacity="0.75">
<path d="M343.183 237.899C342.014 237.99 341.104 237.971 340.565 237.971C336.941 237.971 316.241 238.815 316.241 202.43H333.057C333.057 202.43 328.413 228.521 343.189 237.899H343.183Z" fill="#D4EEFF"/>
</g>
<path d="M99.7678 98.1126C99.1248 89.6106 92.0387 82.9077 83.3678 82.9077C74.6969 82.9077 67.6108 89.6106 66.9678 98.1126H99.7678Z" fill="white"/>
<path d="M117.661 98.1125C119.168 95.6314 120.045 92.7281 120.045 89.6105C120.045 80.5174 112.673 73.1455 103.58 73.1455C94.4871 73.1455 87.1152 80.5174 87.1152 89.6105C87.1152 92.7281 87.9986 95.6314 89.4989 98.1125H117.655H117.661Z" fill="white"/>
<path d="M137.089 98.1124C135.848 90.2533 129.061 84.2324 120.851 84.2324C112.641 84.2324 105.854 90.2468 104.613 98.1124H137.095H137.089Z" fill="white"/>
<path d="M316.236 132.777C315.697 125.671 309.773 120.066 302.525 120.066C295.276 120.066 289.353 125.671 288.813 132.777H316.229H316.236Z" fill="white"/>
<path d="M331.194 132.776C332.454 130.698 333.188 128.275 333.188 125.671C333.188 118.072 327.024 111.908 319.425 111.908C311.826 111.908 305.662 118.072 305.662 125.671C305.662 128.275 306.396 130.704 307.656 132.776H331.188H331.194Z" fill="white"/>
<path d="M347.431 132.777C346.391 126.204 340.721 121.177 333.856 121.177C326.991 121.177 321.32 126.204 320.281 132.777H347.431Z" fill="white"/>
<path d="M312.462 159.744L300.68 234.911L185.179 235.632L198.968 159.744H312.462Z" fill="#A575D8"/>
<path d="M300.68 234.911L185.179 235.632L198.968 159.744H224.896C225.643 176.917 233.924 223.48 300.68 234.911Z" fill="#A171D3"/>
<path d="M312.183 159.744H198.968L185.179 235.632" stroke="#9D6ECE" stroke-width="0.649506" stroke-linecap="round" stroke-linejoin="round"/>
<path d="M388.851 234.911H32.2852V252H388.851V234.911Z" fill="#F9EFE1" stroke="#7A4F0B" stroke-width="0.649506" stroke-linecap="round" stroke-linejoin="round"/>
<path d="M136.48 21.8022H73.5036C67.3528 21.8022 62.3711 26.784 62.3711 32.9348V56.9665C62.3711 63.1173 67.3528 68.099 73.5036 68.099H120.411L135.674 79.1666L132.037 68.099H136.486C142.637 68.099 147.619 63.1173 147.619 56.9665V32.9348C147.619 26.784 142.637 21.8022 136.486 21.8022H136.48Z" fill="#DEC9F4"/>
<path d="M141.195 19.6262H78.2185C72.0676 19.6262 67.0859 24.6079 67.0859 30.7588V54.7905C67.0859 60.9413 72.0676 65.923 78.2185 65.923H125.126L140.389 76.9906L136.752 65.923H141.201C147.352 65.923 152.334 60.9413 152.334 54.7905V30.7588C152.334 24.6079 147.352 19.6262 141.201 19.6262H141.195Z" fill="white" stroke="#A97CD8" stroke-width="0.649506" stroke-linecap="round" stroke-linejoin="round"/>
<path d="M74.3877 42.2358H136.396" stroke="#9E9E9E" stroke-width="0.649506" stroke-linecap="round" stroke-linejoin="round"/>
<path d="M74.3877 29.3499H106.356" stroke="#9E9E9E" stroke-width="0.649506" stroke-linecap="round" stroke-linejoin="round"/>
<path d="M74.459 38.1895H113.423" stroke="#9E9E9E" stroke-width="0.649506" stroke-linecap="round" stroke-linejoin="round"/>
<path d="M74.5752 46.5293H126.211" stroke="#9E9E9E" stroke-width="0.649506" stroke-linecap="round" stroke-linejoin="round"/>
<path d="M74.6543 50.8228H135.909" stroke="#9E9E9E" stroke-width="0.649506" stroke-linecap="round" stroke-linejoin="round"/>
<path d="M74.6611 55.1226H136.41" stroke="#9E9E9E" stroke-width="0.649506" stroke-linecap="round" stroke-linejoin="round"/>
<path d="M74.6924 33.6428H136.233" stroke="#9E9E9E" stroke-width="0.649506" stroke-linecap="round" stroke-linejoin="round"/>
<path d="M260.664 108.686C283.779 108.686 302.518 89.9476 302.518 66.8322C302.518 43.7168 283.779 24.978 260.664 24.978C237.548 24.978 218.81 43.7168 218.81 66.8322C218.81 89.9476 237.548 108.686 260.664 108.686Z" fill="white" stroke="#6A26A8" stroke-width="0.980754" stroke-linecap="round" stroke-linejoin="round"/>
<path d="M260.656 24.9585V32.2395" stroke="#6A26A8" stroke-width="0.980754" stroke-linecap="round" stroke-linejoin="round"/>
<path d="M260.656 100.678V107.959" stroke="#6A26A8" stroke-width="0.980754" stroke-linecap="round" stroke-linejoin="round"/>
<path d="M219.155 66.4619H226.436" stroke="#6A26A8" stroke-width="0.980754" stroke-linecap="round" stroke-linejoin="round"/>
<path d="M294.875 66.4619H302.162" stroke="#6A26A8" stroke-width="0.980754" stroke-linecap="round" stroke-linejoin="round"/>
<path d="M231.312 37.1177L236.456 42.2618" stroke="#6A26A8" stroke-width="0.980754" stroke-linecap="round" stroke-linejoin="round"/>
<path d="M284.851 90.6565L290.001 95.8071" stroke="#6A26A8" stroke-width="0.980754" stroke-linecap="round" stroke-linejoin="round"/>
<path d="M231.312 95.8071L236.456 90.6565" stroke="#6A26A8" stroke-width="0.980754" stroke-linecap="round" stroke-linejoin="round"/>
<path d="M284.851 42.2618L290.001 37.1177" stroke="#6A26A8" stroke-width="0.980754" stroke-linecap="round" stroke-linejoin="round"/>
<path d="M263.477 66.4617C263.477 68.0205 262.217 69.2805 260.658 69.2805C259.099 69.2805 257.839 68.0205 257.839 66.4617C257.839 64.9029 259.099 63.6428 260.658 63.6428C262.217 63.6428 263.477 64.9029 263.477 66.4617Z" fill="#6A26A8"/>
<path d="M260.656 37.1172V66.4619L277.03 81.9721" stroke="#6A26A8" stroke-width="0.980754" stroke-linecap="round" stroke-linejoin="round"/>
</svg>
