<svg width="32" height="52" viewBox="0 0 32 52" fill="none" xmlns="http://www.w3.org/2000/svg">
<path d="M9.65502 9.14493C6.06496 14.1662 2.6447 18.8963 2.06253 19.6725C0.607102 21.6131 -0.0235844 23.1656 0.000672735 24.6452C0.049187 26.2947 0.340273 26.9012 3.4937 32.2135C4.97339 34.712 7.13228 38.302 8.24811 40.1941C9.38819 42.1104 10.407 43.6629 10.504 43.6629C10.7466 43.6629 15.7436 36.6525 16.0589 35.8763C16.1802 35.561 16.3985 33.8145 16.5683 32.0194C16.7139 30.2244 16.8837 28.1383 16.9807 27.4106C17.102 26.1735 17.102 26.1007 16.7139 26.416C16.4955 26.6101 15.1371 28.3809 13.7302 30.3699C12.3233 32.3348 11.0862 33.96 10.9892 33.96C10.7709 33.96 8.68473 30.7338 7.44762 28.5021C6.57436 26.9254 6.50159 26.6586 6.50159 24.8636C6.50159 22.5349 6.47733 22.6076 10.0674 17.5864C11.5713 15.5003 13.0268 13.487 13.2936 13.0988C13.5604 12.735 14.4337 11.5221 15.2099 10.4063C16.9807 7.90781 17.5629 6.45238 17.6114 4.39053C17.6599 2.64401 16.9807 -1.90735e-05 16.4955 -1.90735e-05C16.3257 0.0242386 13.2693 4.1237 9.65502 9.14493Z" fill="#EA580C"/>
<path d="M19.0913 11.0855C15.6468 15.8642 15.8166 15.4761 15.4527 18.9206C15.0646 22.7775 14.9676 25.0819 15.1616 25.2274C15.3072 25.3487 15.9621 24.4997 19.3824 19.6968L20.9833 17.4409L21.3957 17.9988C21.9536 18.7265 24.1368 22.3893 24.7675 23.6507C25.7135 25.5913 25.8348 27.5076 25.1071 29.1813C24.8402 29.7878 23.3363 32.0437 21.7838 34.2268C14.9676 43.7114 14.822 43.954 14.3854 46.2826C14.1671 47.5198 14.1913 48.0292 14.5067 49.2905C15.3557 52.4682 14.9433 52.735 19.9888 45.7247C22.4388 42.3045 25.568 37.9382 26.9506 36.0704C30.9288 30.564 31.5595 29.5452 31.8506 28.3081C32.2872 26.2705 31.8748 25.0334 29.1823 20.6186C27.8481 18.3869 23.6274 11.2553 22.269 8.90237C21.9051 8.27168 21.5898 7.76228 21.5655 7.76228C21.517 7.76228 20.4254 9.26622 19.0913 11.0855Z" fill="#EA580C"/>
</svg>
